<svg height="512pt" viewBox="-61 0 512 512.00016" width="512pt" xmlns="http://www.w3.org/2000/svg"><path d="m384.5 446.871094c-5.410156-11.324219-13.640625-20.707032-21.609375-29.34375-.851563-.921875-1.703125-1.839844-2.558594-2.761719-6.847656-7.382813-13.929687-15.015625-19.15625-23.492187-5.804687-9.414063-9.441406-19.851563-13.292969-30.898438-1.257812-3.617188-2.5625-7.355469-3.9375-11.019531-4.984374-13.28125-12.546874-29.875-26.921874-40.414063-2.46875-1.808594-5.050782-3.367187-7.699219-4.773437 11.152343-5.644531 18.546875-12.695313 25.179687-23.714844 8.613282-14.296875 10.976563-31.6875 6.332032-46.523437-4.308594-13.746094-14.617188-24.964844-27.230469-30.164063 8.214843-13.425781 9.429687-31.132813 2.597656-45.363281-8.21875-17.113282-21.226563-27.742188-35.523437-29.378906 1.167968-3.335938 1.367187-6.757813 1.527343-9.636719l1.066407-19.273438c7.734374.929688 15.863281-.65625 22.527343-4.964843 12.128907-7.851563 18.65625-23.644532 15.863281-38.402344-2.605468-13.765625-13.121093-26.152344-26.792968-31.550782-9.835938-3.886718-20.664063-4.046874-33.699219-.441406-.878906-2.980468-2.550781-5.863281-4.90625-8.335937-3.476563-3.648438-7.847656-5.976563-12.054687-7.949219-15.3125-7.183594-28.621094-9.757812-40.679688-7.871094-6.054688.949219-12 3.078125-17.679688 6.324219-3.832031 2.191406-7.480468 4.867187-10.839843 7.949219-7.15625 6.570312-13.230469 15.121094-18.050781 25.410156-.433594.9375-.78125 1.851562-1.039063 2.742188-11.480469-2.199219-22.605469-.617188-31.34375 4.613281-6.007813 3.59375-10.914063 9.507812-13.46875 16.226562-2.773437 7.304688-2.585937 14.816407.535156 21.152344 3.429688 6.972656 10.105469 12.449219 19.839844 16.28125 2.777344 1.09375 5.625 1.992187 8.511719 2.707031l4.503906 27.730469c-14.402344 6.855469-26.792969 21.683594-32.832031 33.707031-6.84375 13.621094-8.769531 29.949219-5.277344 44.792969l.152344.628906c.507812 2.132813 1.082031 4.546875.507812 5.679688-.402343.800781-1.75 1.710937-3.054687 2.589843l-.699219.476563c-16.914063 11.617187-25.480469 33.691406-20.832031 53.675781 3.722656 16 15.636718 29.457032 30.660156 35.710938-14.328125 10.542968-21.878906 27.101562-26.855469 40.359375-1.375 3.664062-2.679687 7.402343-3.9375 11.019531-3.851562 11.046875-7.488281 21.484375-13.292969 30.898438-5.226562 8.476562-12.308593 16.109374-19.15625 23.492187-.855468.921875-1.707031 1.839844-2.558593 2.761719-7.96875 8.636718-16.199219 18.019531-21.609375 29.34375-6.234375 13.046875-7.414063 26.5-3.3125 37.878906 4.773437 13.261719 17.214844 22.503906 29.988281 22.503906.511719 0 1.023437-.015625 1.535156-.042968 1.980469-.117188 3.621094-1.382813 4.328125-3.109376 10.230469 3.5625 21.082032 5.347657 31.929688 5.347657 11.375 0 22.75-1.960938 33.410156-5.902344 2.195312-.808594 4.261719-1.675781 6.226562-2.589844.195313.023438.382813.058594.585938.058594h.078125l158.03125-2.429687c1.054687-.015626 2.023437-.359376 2.824219-.933594 7.484375 5.570312 15.992187 9.757812 25.003906 12.09375 5.835938 1.511718 11.863281 2.253906 17.898438 2.253906 13.046874 0 26.117187-3.472656 37.34375-10.082031v.109375c-.105469 2.71875 1.984374 5.023437 4.703124 5.183594.511719.027343 1.023438.042968 1.535157.042968 12.769531 0 25.214843-9.242187 29.988281-22.503906 4.097656-11.378906 2.921875-24.832031-3.3125-37.878906zm-97.3125-284.140625c6.222656 12.960937 3.96875 29.582031-5.484375 40.417969-1.164063 1.332031-1.535156 3.179687-.980469 4.855468.554688 1.679688 1.957032 2.941406 3.683594 3.316406 12.113281 2.636719 22.917969 12.925782 26.886719 25.59375 3.804687 12.148438 1.804687 26.496094-5.351563 38.378907-6.816406 11.316406-13.890625 17.242187-27.035156 22.652343-.511719.210938-.957031.511719-1.351562.859376-1.078126-.441407-2.152344-.871094-3.21875-1.300782-1.125-.449218-2.246094-.902344-3.367188-1.359375-7.492188-3.054687-15.984375-6.839843-21.9375-13.117187-4.070312-4.285156-6.074219-12.191406-8.007812-19.835938-.613282-2.421875-1.25-4.925781-1.953126-7.355468-.160156-.550782-.425781-1.039063-.734374-1.480469 1.710937-1.476563 3.375-3.019531 4.972656-4.644531 12.78125-13 21.894531-30.855469 25.667968-50.269532.839844-4.332031 1.371094-8.964844-.425781-13.46875-1.78125-4.46875-5.269531-7.339844-8.34375-9.875-.503906-.414062-1.007812-.832031-1.5-1.25-9.371093-8-15.339843-20.039062-16.101562-32.339844 3.730469-.902343 7.507812-2.164062 10.722656-4.257812.742187.378906 1.578125.597656 2.46875.5625 18.097656-.761719 28.601563 18.113281 31.390625 23.917969zm-7.105469 277.640625c-.132812.265625-.222656.539062-.300781.8125-.632812.03125-1.246094.0625-1.816406.074218-5.210938.097657-10.421875.15625-15.636719.214844-25.371094.28125-51.25.507813-76.816406.894532-23.007813.347656-46.480469 2.363281-69.464844 1.160156-.164063-.007813-2.253906.046875-2.28125-.183594-.070313-.585938-.234375-1.167969-.523437-1.722656 0 0-22.613282-43.003906-22.613282-43.007813.765625 1.457031 8.304688 1.832031 9.867188 1.976563 3.761718.351562 7.566406.261718 11.308594-.28125 4.195312-.609375 8.171874-2 11.96875-3.808594 1.273437-.605469 2.53125-1.257812 3.769531-1.949219 4.550781-2.527343 10.304687-5.9375 15.632812-6.050781 4.527344-.082031 9.042969 2.441406 13.8125 5.132812 5.984375 3.371094 11.925781 7.128907 19.050781 6.792969 7.617188-.359375 14.574219-2.972656 21.523438-5.910156 5.101562-2.160156 10.335938-4.871094 15.980469-5.128906 5.589843-.257813 10.886719 2.222656 15.84375 4.503906 1.992187.917969 4.054687 1.867187 6.1875 2.695313 13.222656 5.15625 28.210937 5.210937 42.007812 2.507812 9.191407-1.804688 18.035157-4.75 26.628907-8.011719zm7.113281 16.234375c-2.457031 3.066406-7.355468 3.347656-13.035156 3.382812l-158.445312.960938c-3.414063.019531-7.289063.042969-9.96875-1.414063-1.816406-.984375-2.851563-3.09375-2.394532-4.066406.351563-.75 1.847657-2.015625 7.914063-2.09375l144.421875-1.824219 6.753906-.078125c5.238282-.058594 10.476563-.117187 15.714844-.21875.726562-.015625 1.511719-.050781 2.328125-.09375 2.460937-.125 5.828125-.296875 7.128906.613282.132813.09375.480469.335937.601563 1.171874.167968 1.175782-.261719 2.714844-1.019532 3.660157zm-11.539062-67.324219c-13.625 2.671875-26.226562 1.976562-36.449219-2.011719-1.855469-.722656-3.695312-1.566406-5.640625-2.464843-4.949218-2.277344-10.0625-4.628907-15.964844-5.167969-8.660156-.796875-16.421874 2.492187-23.933593 5.667969-7.054688 2.984374-13.71875 5.800781-20.121094 4.679687-3.863281-.675781-7.644531-2.808594-11.648437-5.0625-5.464844-3.082031-11.648438-6.539063-18.933594-6.417969-6.675782.140625-12.375 3.332032-17.398438 6.148438-1.894531 1.058594-3.679687 2.058594-5.472656 2.890625-10.507812 4.894531-23.238281 4.21875-33.308594-1.394531 22.039063-20.589844 50.816406-35.132813 81.332032-41.007813 25.480468-4.902344 48.824218-4.273437 69.386718 1.875 10.871094 3.25 21.546875 8.101563 31.871094 12.789063 4.761719 2.164062 9.683594 4.398437 14.609375 6.472656 1.007813.425781 2.054687.855468 3.125 1.292968 7.242187 2.960938 15.351563 6.289063 19.230469 11.957032-9.984375 3.953125-20.234375 7.703125-30.683594 9.753906zm-55.277344-56.726562c-.992187-.167969-1.980468-.324219-2.964844-.460938-5.132812-.710938-10.3125-.695312-15.488281-.519531.816407-10.101563 4.304688-20.136719 9.964844-28.507813.175781-.257812.3125-.527344.433594-.800781 5.058593-1.457031 9.921875-3.414063 14.476562-5.835937-3.550781 11.535156-5.242187 24.199218-6.421875 36.125zm-19.75-37.964844c-12.390625 1.800781-25.714844.292968-38.53125-4.359375-3.394531-1.234375-7.464844-2.976563-10.027344-5.78125 2.5-4.523438 4.101563-9.613281 5.242188-14.585938.207031-.894531.417969-1.800781.636719-2.71875 9.433593 4.328125 19.804687 6.65625 30.167969 6.65625 1.265624 0 2.535156-.035156 3.796874-.101562 13.257813-.734375 26.527344-5.359375 38.113282-13.054688.449218 1.652344.878906 3.347657 1.300781 5.003907 1.085937 4.304687 1.953125 8.707031 3.539063 12.863281-8.992188 8.46875-21.144532 14.175781-34.238282 16.078125zm-10.386718-146.46875c14.238281 0 28.472656-1.226563 42.476562-3.664063 1.265625 14.492188 8.4375 28.554688 19.492188 37.996094.535156.457031 1.085937.910156 1.636718 1.363281 2.355469 1.941406 4.582032 3.777344 5.414063 5.863282.839843 2.109374.445312 5.023437-.105469 7.855468-3.398438 17.507813-11.5625 33.546875-22.980469 45.167969-12.246093 12.457031-28.578125 20.113281-44.8125 21.011719-15.003906.820312-30.335937-4.109375-42.042969-13.539063-11.707031-9.433593-19.785156-23.355469-22.171874-38.203125-.835938-5.210937-.621094-8.996094.675781-11.90625 1.179687-2.652344 3.472656-5.015625 5.898437-7.519531.566406-.585937 1.132813-1.167969 1.6875-1.757813 11.5625-12.285156 19.082032-28.214843 21.261719-44.9375 11.117187 1.507813 22.34375 2.269532 33.570313 2.269532zm-55.640626-16.558594-4.191406-25.8125c16.164063 1.488281 32.84375-2.523438 46.390625-11.515625 9.140625 9.824219 22.488281 15.804687 35.902344 15.859375h.1875c13.265625 0 26.488281-5.78125 35.65625-15.367188 1.546875 1.054688 3.203125 1.949219 4.921875 2.710938-.039062.214844-.089844.425781-.101562.652344l-1.148438 20.746094c-.160156 2.96875-.332031 6.042968-1.554688 8.1875-2.082031 3.65625-7.570312 5.21875-12.664062 6.265624-33.980469 6.988282-69.65625 6.386719-103.398438-1.726562zm-19.453124-39.570312c-7.347657-2.894532-12.238282-6.726563-14.53125-11.394532-4.246094-8.621094 1.386718-19.769531 9.09375-24.382812 7.976562-4.773438 19.339843-5.4375 30.402343-1.785156 2.332031.769531 4.878907-.269532 6.007813-2.453126.972656-1.875.644531-4.121093-.722656-5.640624.070312-.382813.242187-1.003907.621093-1.816407 4.261719-9.101562 9.5625-16.601562 15.753907-22.285156 2.8125-2.578125 5.851562-4.808594 9.042968-6.632813 4.617188-2.640624 9.417969-4.363281 14.261719-5.125 10.023437-1.566406 21.4375.734376 34.886719 7.042969 3.839844 1.804688 6.851562 3.476563 9.058594 5.796875 2.109374 2.214844 3.175781 4.972656 2.785156 7.199219-.304688 1.742187.335937 3.519531 1.6875 4.667969 1.347656 1.148437 3.203125 1.496094 4.875.917968 13.417968-4.644531 23.847656-5.15625 32.824218-1.609374 10.558594 4.171874 18.65625 13.636718 20.640626 24.113281 2.058593 10.871093-2.660157 22.445312-11.46875 28.144531-8.828126 5.710938-21.789063 4.582031-28.890626-2.523438-1.023437-1.019531-2.441406-1.546874-3.871093-1.449218-1.4375.09375-2.765625.808594-3.640625 1.953125-7.242188 9.488281-19.132813 15.363281-31.070313 15.363281-.046875 0-.097656 0-.148437 0-11.984375-.046875-23.898438-6.03125-31.089844-15.617188-.804688-1.070312-2.003906-1.773437-3.328125-1.957031-.226563-.027343-.449219-.042969-.671875-.042969-1.101562 0-2.179688.363282-3.058594 1.042969-16.59375 12.832031-39.929687 16.15625-59.449218 8.472657zm-42.945313 179.023437c-3.675781-15.816406 3.367187-33.96875 16.753906-43.164063l.640625-.4375c2.136719-1.445312 4.796875-3.242187 6.375-6.359374 2.230469-4.402344 1.113282-9.089844.296875-12.511719l-.144531-.605469c-2.960938-12.59375-1.332031-26.449219 4.476562-38.007812 6.292969-12.527344 17.984376-24.480469 28.652344-29.390626 5.792969 1.46875 11.644532 2.722657 17.539063 3.765626-1.867188 14.75-8.476563 28.804687-18.664063 39.628906-.519531.554687-1.054687 1.101562-1.585937 1.652344-2.789063 2.878906-5.953125 6.140624-7.855469 10.410156-2.789062 6.261718-2.140625 13.023437-1.410156 17.5625 2.769531 17.253906 12.164062 33.4375 25.769531 44.402344 1.867187 1.503906 3.820313 2.894531 5.835937 4.199218-.488281 1.890625-.910156 3.703125-1.3125 5.464844-1.527343 6.644531-2.628906 11.445312-6.382812 15.402344-5.957031 6.273437-14.449219 10.0625-21.941406 13.117187-1.117188.457031-2.242188.90625-3.363282 1.359375-3.628906 1.453125-7.308593 2.941406-10.925781 4.636719-15.527343-2.859375-29.175781-15.742187-32.753906-31.125zm-43.554687 225.820313c-7.230469-1.59375-14.003907-7.605469-16.839844-15.472657-3.140625-8.71875-2.070313-19.71875 2.929687-30.183593 4.808594-10.070313 12.484375-18.796876 19.9375-26.871094.84375-.914063 1.6875-1.828125 2.535157-2.742188 7.175781-7.734375 14.597656-15.734375 20.335937-25.042968 6.378906-10.34375 10.367187-21.792969 14.226563-32.859376 1.242187-3.5625 2.523437-7.242187 3.859374-10.792968 4.496094-11.984375 11.226563-26.890625 23.472657-35.867188 6.003906-4.402344 13.046875-7.226562 20.5-10.21875 1.140625-.457031 2.28125-.917968 3.417969-1.378906 8.132812-3.316406 16.253906-7.089844 22.855468-13.011719 3.847656 3.628907 8.710938 5.746094 12.804688 7.234375 13.421875 4.875 27.398437 6.65625 40.609375 5.210938-4.261719 8.421875-6.835938 17.78125-7.421875 27.152344-8.617188.441406-17.179688 1.703124-25.644532 3.332031-33.167968 6.382812-64.441406 22.429687-88.058593 45.183593-.46875.449219-.820313.972657-1.074219 1.53125-.542969.1875-1.058594.472657-1.523438.855469-1.832031 1.503907-2.355468 4.089844-1.25 6.1875l29.015626 55.1875c-.820313.21875-1.640626.496094-2.449219.835938-.445313-.714844-1.054688-1.335938-1.851563-1.765625-1.332031-.714844-4.003906-2.257813-6.585937-3.75-.78125-.453125-1.546875-.894532-2.277344-1.316406-.164063-.597657-.433594-1.167969-.816406-1.679688-4.8125-6.460938-12.15625-10.765625-20.144531-11.808594-7.992188-1.039062-16.191407 1.234375-22.503907 6.242188-2.164062 1.714844-2.523437 4.863281-.808593 7.023437 1.71875 2.164063 4.863281 2.527344 7.023437.808594 4.144531-3.285156 9.75-4.839844 14.992187-4.15625 2.378907.308594 4.710938 1.082031 6.84375 2.234375-12.132812 3.84375-23.195312 11.203125-31.292968 21-9.027344 10.921875-14.191406 24.5625-14.816406 38.898438zm88.351562-12.160157c-4.332031 3.789063-9.851562 6.894531-16.875 9.492188-19.546875 7.222656-41.769531 7.015625-61.203125-.496094 1.15625-10.839844 5.371094-21.042969 12.25-29.363281 7.867187-9.515625 19.03125-16.308594 31.078125-19.042969 1.421875.800781 3.328125 1.902344 5.195312 2.984375 2.597657 1.5 5.042969 2.914062 6.550782 3.734375-2.472656 6.429687 1.558594 13.394531 6.976562 16.339844 4.4375 2.410156 9.300782 2.628906 13.433594 2.628906.464844 0 .925781-.003906 1.371094-.003906l10.414062-.066407c-1.453125 4.980469-4.664062 9.835938-9.191406 13.792969zm8.121094 6.113281c5.667968-5.445312 9.613281-12.113281 11.179687-18.972656.074219-.332031.113281-.664062.121094-.992187l113.105469-.6875c-.074219.898437.085937 1.828125.53125 2.691406 2.988281 5.773437 6.804687 11.105469 11.246094 15.867187zm224.085937.839844c-14.585937 9.675782-33.410156 12.828125-50.355469 8.4375-16.261718-4.21875-30.644531-15.363281-38.890624-29.992187l14.261718-.085938c6.03125-.039062 15.144532-.09375 20.78125-7.132812 2.476563-3.09375 3.667969-7.433594 3.109375-11.328125-.039062-.273438-.101562-.542969-.15625-.8125l8.992188-5.25c.164062-.097656.3125-.210938.460937-.320313 12.257813 2.644531 23.644532 9.503907 31.632813 19.164063 6.289062 7.609375 10.347656 16.800781 11.882812 26.605468-.59375.128907-1.179687.359376-1.71875.714844zm29.199219-10.265625c-2.835938 7.867188-9.609375 13.878907-16.84375 15.472657-.625-14.339844-5.785156-27.976563-14.8125-38.898438-8.097656-9.796875-19.160156-17.15625-31.292969-21 2.132813-1.148438 4.464844-1.921875 6.84375-2.234375 5.242188-.683594 10.847657.871094 14.992188 4.160156 2.160156 1.714844 5.308593 1.351563 7.023437-.808593 1.714844-2.164063 1.355469-5.308594-.808594-7.027344-6.3125-5.007813-14.511718-7.28125-22.503906-6.238282-7.988281 1.042969-15.332031 5.34375-20.144531 11.804688-.117187.152344-.214844.3125-.308594.476562-.433593.335938-.816406.738282-1.117187 1.203126l-7.578125 4.425781c-.484375-.238281-.976563-.445313-1.476563-.625l28.480469-58.171875c.910156-1.855469.582031-4.085938-.828125-5.601563-.445312-.476562-.972656-.839843-1.539062-1.105469-.023438-.054687-.035157-.109374-.058594-.164062-4.921875-10.285156-16.355469-14.960938-25.542969-18.714844-1.035156-.425781-2.046875-.839844-3.023437-1.25-4.800782-2.023437-9.65625-4.230468-14.355469-6.363281-10.628907-4.828125-21.621094-9.820313-33.144531-13.269531-3.289063-.980469-6.703126-1.933594-10.148438-2.789063 1.550781-16.007812 3.96875-33.4375 10.667969-46.695312.597656.710937 1.203125 1.429687 1.824219 2.175781 6.269531 7.53125 15.519531 11.625 24.480468 15.28125 1.136719.464844 2.277344.921875 3.417969 1.378906 7.453125 2.992188 14.492187 5.816406 20.5 10.21875 12.242187 8.976563 18.976563 23.882813 23.472656 35.867188 1.332031 3.550781 2.617188 7.234375 3.859375 10.792968 3.855469 11.070313 7.84375 22.515626 14.222656 32.859376 5.742188 9.308593 13.160157 17.308593 20.335938 25.042968.847656.914063 1.695312 1.828125 2.539062 2.742188 7.449219 8.074218 15.128907 16.800781 19.9375 26.871094 5 10.464843 6.066407 21.464843 2.929688 30.183593zm0 0"/></svg>